<?xml version="1.0" encoding="utf-8"?>
<!-- Generator: Adobe Illustrator 23.0.6, SVG Export Plug-In . SVG Version: 6.00 Build 0)  -->
<svg version="1.1" id="Layer_1" xmlns="http://www.w3.org/2000/svg" xmlns:xlink="http://www.w3.org/1999/xlink" x="0px" y="0px"
	 width="160px" height="600px" viewBox="0 0 160 600" style="enable-background:new 0 0 160 600;" xml:space="preserve">
<style type="text/css">
	.st0{fill:#F7A509;}
	.st1{fill:#FFFF81;}
</style>
<path class="st0" d="M140.31,433.61c16.33,6.15,27.99,7.03,33.6,0.41c0.21-0.25,3.54-5.69,3.59-6.01c0,0,0,0,0-0.01
	c-2.91,5.69-18.19,5.35-34.75-0.88c-16.19-6.09-27.74-15.62-26.78-21.83c0,0,0,0,0,0c-0.24,0.32-1.14,6.07-1.19,6.46
	C113.8,419.28,123.98,427.46,140.31,433.61z"/>
<path class="st1" d="M142.76,427.12c16.56,6.23,31.84,6.57,34.75,0.88c0.08-0.15,0.15-0.3,0.21-0.45
	c2.32-6.16-9.57-16.33-26.56-22.73c-16.99-6.4-32.64-6.59-34.96-0.43c-0.11,0.29-0.18,0.59-0.22,0.9
	C115.02,411.5,126.57,421.03,142.76,427.12z"/>
<path class="st0" d="M13.43,258.14c0.12-0.28,1.78-6.35,1.76-6.68c0,0,0,0,0-0.01c-1.28,6.25-13.56,8.11-27.95,4.1
	c-14.07-3.92-25.07-12.03-25.45-18.54c0,0,0,0,0,0c-0.13,0.36,0.21,6.39,0.24,6.8c0.6,7.86,10.26,14.78,24.45,18.74
	C0.67,266.51,10.16,265.74,13.43,258.14z"/>
<path class="st1" d="M-12.77,255.55c14.39,4.01,26.68,2.16,27.95-4.1c0.03-0.16,0.06-0.33,0.08-0.49
	c0.72-6.65-10.67-15.38-25.44-19.49c-14.77-4.12-27.32-2.06-28.03,4.59c-0.03,0.31-0.03,0.63-0.01,0.95
	C-37.83,243.52-26.84,251.63-12.77,255.55z"/>
<path class="st0" d="M201.35,300.86c-0.16-0.33-4.36-6.63-4.69-6.87c0,0,0,0-0.01,0c4.68,6.1-3.34,18.73-18.35,28.65
	c-14.68,9.7-30.73,13.3-36.96,8.5c0,0,0,0,0,0.01c0.23,0.41,5.98,4.85,6.38,5.15c7.63,5.66,21.54,2.34,36.35-7.44
	C198.89,319.06,205.68,309.82,201.35,300.86z"/>
<path class="st1" d="M178.31,322.63c15.01-9.92,23.03-22.55,18.35-28.65c-0.12-0.16-0.25-0.32-0.38-0.46
	c-5.48-5.9-22.41-2.44-37.81,7.74c-15.4,10.18-23.45,23.21-17.97,29.12c0.26,0.28,0.55,0.53,0.86,0.76
	C147.57,335.93,163.63,332.33,178.31,322.63z"/>
<path class="st0" d="M19.89,321.38c-16.28-3.44-29.33-7.96-30.75-10.52c-0.05,1.18,0.09,4.25,0.11,4.5c0.44,5.74,12,9.98,28.6,13.72
	c16.6,3.74,28.28,4.75,32.4-0.56c0.14-0.18,1.89-3.64,2.24-4.53C50.96,326.06,36.77,324.95,19.89,321.38z"/>
<path class="st1" d="M21.73,312.63c-17.56-3.71-32.21-4.76-32.72-2.34c-0.04,0.18,0.01,0.37,0.12,0.57
	c1.42,2.57,14.47,7.08,30.75,10.52c16.89,3.57,31.07,4.67,32.59,2.61c0.06-0.08,0.11-0.17,0.13-0.26
	C53.12,321.31,39.3,316.35,21.73,312.63z"/>
<path class="st0" d="M-5.5,409.46c-11.73,4.23-21.83,6.51-23.75,5.43c0.43,0.77,1.73,2.68,1.84,2.83
	c2.55,3.49,11.59,1.63,23.64-2.54c12.05-4.17,19.9-8.13,20.42-13.14c0.02-0.17-0.23-3.06-0.36-3.77
	C16.15,400.18,6.67,405.07-5.5,409.46z"/>
<path class="st1" d="M-7.77,403.16c-12.65,4.57-22.4,9.68-21.78,11.42c0.05,0.13,0.15,0.23,0.3,0.32c1.92,1.08,12.02-1.2,23.75-5.43
	c12.17-4.39,21.65-9.28,21.8-11.2c0.01-0.08,0-0.15-0.02-0.22C15.65,396.3,4.88,398.59-7.77,403.16z"/>
<path class="st0" d="M143.96,590.52c-14.23,2.38-26.26,3.14-28.3,1.87c0.37,0.77,1.55,2.74,1.65,2.9c2.36,3.62,13.1,3.1,27.7,0.82
	c14.6-2.28,24.32-4.93,25.76-9.56c0.05-0.15,0.24-2.91,0.21-3.59C170.48,584.75,158.73,588.06,143.96,590.52z"/>
<path class="st1" d="M142.39,584.3c-15.36,2.57-27.47,6.04-27.03,7.76c0.03,0.13,0.14,0.24,0.3,0.34c2.04,1.27,14.07,0.5,28.3-1.87
	c14.77-2.47,26.53-5.78,27.02-7.55c0.02-0.07,0.03-0.14,0.01-0.21C170.56,581.04,157.75,581.73,142.39,584.3z"/>
<path class="st0" d="M14.95,153.93c-17.48,3.81-33.17,0.63-36.23-7.09c0,0,0,0,0,0.01c0,0.52,2.81,7.67,3.01,8.16
	c3.85,9.24,17.55,11.78,35.18,7.94c17.64-3.85,28.05-10.59,28.68-21.86c0.02-0.42-0.54-8.84-0.7-9.23c0,0,0,0,0-0.01
	C45.97,140.26,32.83,150.03,14.95,153.93z"/>
<path class="st1" d="M-21.28,146.85c3.05,7.72,18.75,10.9,36.23,7.09c17.88-3.9,31.02-13.67,29.94-22.09
	c-0.03-0.22-0.06-0.44-0.11-0.65c-1.87-8.56-18.25-12.26-36.6-8.26c-18.34,4-31.7,14.18-29.84,22.74
	C-21.56,146.08-21.43,146.47-21.28,146.85z"/>
<path class="st0" d="M-13.52,62.93c19.69-1.11,34.94-14.74,34.05-30.44c-0.03-0.59-0.1-1.17-0.17-1.74
	c-0.95,13.54-13.7,25.73-30.95,28.51c-19.47,3.14-37.29-6.89-39.8-22.42c-0.23-1.4-0.31-2.79-0.28-4.18
	c-0.14,1.27-0.19,2.55-0.12,3.85C-49.9,52.21-33.21,64.04-13.52,62.93z"/>
<path class="st1" d="M-10.59,59.26c17.25-2.78,30-14.97,30.95-28.51c0.12-1.75,0.06-3.51-0.23-5.29C17.63,9.94-0.18-0.09-19.66,3.05
	c-17.72,2.86-30.7,15.64-31.01,29.62c-0.03,1.38,0.06,2.78,0.28,4.18C-47.88,52.37-30.06,62.4-10.59,59.26z"/>
<path class="st0" d="M157.72,235.92c22.62-1.28,40.14-16.93,39.12-34.96c-0.04-0.67-0.11-1.34-0.2-2
	c-1.09,15.55-15.74,29.55-35.55,32.75c-22.37,3.61-42.84-7.92-45.71-25.75c-0.26-1.61-0.36-3.21-0.33-4.8
	c-0.16,1.45-0.22,2.93-0.13,4.42C115.93,223.61,135.1,237.19,157.72,235.92z"/>
<path class="st1" d="M161.09,231.7c19.81-3.2,34.46-17.2,35.55-32.75c0.14-2,0.07-4.03-0.26-6.07
	c-2.88-17.83-23.34-29.36-45.71-25.75c-20.35,3.28-35.26,17.97-35.62,34.02c-0.04,1.59,0.07,3.19,0.33,4.8
	C118.25,223.79,138.72,235.31,161.09,231.7z"/>
</svg>
