<?xml version="1.0" encoding="utf-8"?>
<!-- Generator: Adobe Illustrator 23.0.6, SVG Export Plug-In . SVG Version: 6.00 Build 0)  -->
<svg version="1.1" id="Layer_1" xmlns="http://www.w3.org/2000/svg" xmlns:xlink="http://www.w3.org/1999/xlink" x="0px" y="0px"
	 width="320px" height="150px" viewBox="0 0 320 150" style="enable-background:new 0 0 320 150;" xml:space="preserve">
<style type="text/css">
	.st0{fill:#F7A509;}
	.st1{fill:#FFFF81;}
</style>
<path class="st0" d="M291.84,31.98c8.3,3.71,14.23,4.24,17.09,0.25c0.11-0.15,1.8-3.43,1.82-3.62c0,0,0,0,0,0
	c-1.48,3.43-9.25,3.23-17.67-0.53c-8.23-3.68-14.1-9.42-13.62-13.17c0,0,0,0,0,0c-0.12,0.19-0.58,3.66-0.6,3.9
	C278.35,23.34,283.53,28.27,291.84,31.98z"/>
<path class="st1" d="M293.08,28.07c8.42,3.76,16.19,3.96,17.67,0.53c0.04-0.09,0.08-0.18,0.11-0.27c1.18-3.71-4.87-9.85-13.51-13.71
	c-8.64-3.86-16.6-3.97-17.77-0.26c-0.06,0.17-0.09,0.36-0.11,0.54C278.98,18.65,284.85,24.39,293.08,28.07z"/>
<path class="st0" d="M25.9,70.19c0.06-0.15,0.89-3.3,0.87-3.47c0,0,0,0,0,0c-0.62,3.25-7.08,4.12-14.71,1.9
	c-7.46-2.17-13.33-6.5-13.59-9.9c0,0,0,0,0,0c-0.07,0.19,0.17,3.34,0.19,3.55c0.39,4.11,5.54,7.81,13.06,10
	C19.24,74.45,24.24,74.13,25.9,70.19z"/>
<path class="st1" d="M12.06,68.62c7.63,2.22,14.09,1.36,14.71-1.9c0.02-0.08,0.03-0.17,0.04-0.26c0.32-3.47-5.76-8.12-13.59-10.4
	c-7.83-2.28-14.43-1.31-14.75,2.16c-0.02,0.16-0.01,0.33,0,0.5C-1.27,62.12,4.6,66.45,12.06,68.62z"/>
<path class="st0" d="M309.12,69.57c-6.71,3.51-13.74,4.36-16.19,2.03c0,0,0,0,0,0c0.08,0.18,2.35,2.34,2.51,2.48
	c3.02,2.75,9.12,1.94,15.89-1.6c6.76-3.55,10.07-7.21,8.61-11.23c-0.05-0.15-1.58-3.03-1.71-3.15c0,0,0,0,0,0
	C319.96,60.92,315.98,65.98,309.12,69.57z"/>
<path class="st1" d="M301.55,59.56c-7.04,3.69-11.05,8.92-8.96,11.68c0.1,0.13,0.21,0.25,0.33,0.36c2.46,2.32,9.49,1.48,16.19-2.03
	c6.86-3.59,10.84-8.65,9.1-11.47c-0.05-0.07-0.09-0.15-0.14-0.22C315.99,55.12,308.59,55.87,301.55,59.56z"/>
<path class="st0" d="M32.45,96.72c-7-1.48-12.62-3.42-13.23-4.53c-0.02,0.51,0.04,1.83,0.05,1.94c0.19,2.47,5.16,4.3,12.31,5.9
	c7.14,1.61,12.17,2.05,13.94-0.24c0.06-0.08,0.81-1.57,0.96-1.95C45.82,98.74,39.72,98.26,32.45,96.72z"/>
<path class="st1" d="M33.24,92.96c-7.56-1.6-13.86-2.05-14.08-1.01c-0.02,0.08,0,0.16,0.05,0.25c0.61,1.1,6.23,3.05,13.23,4.53
	c7.27,1.54,13.37,2.01,14.03,1.12c0.03-0.04,0.05-0.07,0.06-0.11C46.75,96.69,40.8,94.56,33.24,92.96z"/>
<path class="st0" d="M288.67,98.88c-6.81,2.2-12.65,3.31-13.73,2.65c0.23,0.45,0.94,1.57,1,1.66c1.39,2.05,6.62,1.16,13.61-1
	c7-2.16,11.58-4.28,11.97-7.14c0.01-0.1-0.07-1.76-0.13-2.17C301.27,93.97,295.74,96.59,288.67,98.88z"/>
<path class="st1" d="M287.49,95.22c-7.35,2.37-13.04,5.12-12.72,6.13c0.02,0.07,0.08,0.14,0.17,0.19c1.08,0.65,6.92-0.45,13.73-2.65
	c7.07-2.28,12.6-4.91,12.72-6c0.01-0.04,0-0.09-0.01-0.12C301.06,91.74,294.84,92.84,287.49,95.22z"/>
<path class="st0" d="M306.46,136.03c-7-1.48-12.62-3.42-13.23-4.53c-0.02,0.51,0.04,1.83,0.05,1.94c0.19,2.47,5.16,4.3,12.31,5.9
	c7.14,1.61,12.17,2.05,13.94-0.24c0.06-0.08,0.81-1.57,0.96-1.95C319.83,138.04,313.73,137.57,306.46,136.03z"/>
<path class="st1" d="M307.25,132.27c-7.56-1.6-13.86-2.05-14.08-1.01c-0.02,0.08,0,0.16,0.05,0.25c0.61,1.1,6.23,3.05,13.23,4.53
	c7.27,1.54,13.37,2.01,14.03,1.12c0.03-0.04,0.05-0.07,0.06-0.11C320.76,136,314.81,133.86,307.25,132.27z"/>
<path class="st0" d="M13.46,136.19c-7.78,1.3-14.36,1.72-15.48,1.03c0.2,0.42,0.85,1.5,0.9,1.59c1.29,1.98,7.16,1.7,15.15,0.45
	c7.99-1.25,13.3-2.7,14.09-5.23c0.03-0.08,0.13-1.59,0.12-1.96C27.97,133.03,21.54,134.84,13.46,136.19z"/>
<path class="st1" d="M12.6,132.78c-8.4,1.4-15.02,3.3-14.79,4.25c0.02,0.07,0.08,0.13,0.16,0.19c1.12,0.69,7.7,0.28,15.48-1.03
	c8.08-1.35,14.51-3.16,14.78-4.13c0.01-0.04,0.02-0.08,0.01-0.11C28.01,131,21.01,131.38,12.6,132.78z"/>
<path class="st0" d="M25.55,24.76c-8.36,1.82-15.87,0.3-17.33-3.39c0,0,0,0,0,0c0,0.25,1.34,3.67,1.44,3.9
	c1.84,4.42,8.39,5.64,16.83,3.8c8.44-1.84,13.42-5.07,13.72-10.46c0.01-0.2-0.26-4.23-0.34-4.42c0,0,0,0,0,0
	C40.39,18.22,34.11,22.89,25.55,24.76z"/>
<path class="st1" d="M8.05,20.81c0.04,0.19,0.1,0.38,0.18,0.56c1.46,3.69,8.97,5.21,17.33,3.39c8.55-1.87,14.84-6.54,14.32-10.57
	c-0.01-0.1-0.03-0.21-0.05-0.31c-0.89-4.1-8.73-5.86-17.51-3.95C13.54,11.84,7.15,16.71,8.05,20.81z"/>
</svg>
