<?xml version="1.0" encoding="utf-8"?>
<!-- Generator: Adobe Illustrator 23.0.6, SVG Export Plug-In . SVG Version: 6.00 Build 0)  -->
<svg version="1.1" id="Layer_1" xmlns="http://www.w3.org/2000/svg" xmlns:xlink="http://www.w3.org/1999/xlink" x="0px" y="0px"
	 width="728px" height="90px" viewBox="0 0 728 90" style="enable-background:new 0 0 728 90;" xml:space="preserve">
<style type="text/css">
	.st0{fill:#F7A509;}
	.st1{fill:#FFFF81;}
</style>
<path class="st0" d="M706.88,22.33c-9.87,5.17-20.22,6.41-23.84,2.99c0,0,0,0,0,0c0.12,0.27,3.46,3.44,3.69,3.65
	c4.45,4.06,13.43,2.86,23.39-2.36c9.96-5.22,14.83-10.61,12.68-16.54c-0.08-0.22-2.33-4.46-2.51-4.63c0,0,0,0,0,0
	C722.84,9.59,716.98,17.04,706.88,22.33z"/>
<path class="st1" d="M695.74,7.59c-10.36,5.43-16.26,13.13-13.19,17.2c0.14,0.19,0.31,0.37,0.49,0.54
	c3.62,3.42,13.97,2.18,23.84-2.99c10.1-5.29,15.96-12.74,13.4-16.89c-0.07-0.11-0.13-0.21-0.21-0.32
	C716.99,1.06,706.1,2.16,695.74,7.59z"/>
<path class="st0" d="M684.99,72.37c-8.96-2.56-15.87-7.79-16-11.95c0,0,0,0,0,0c-0.09,0.23,0.02,4.09,0.03,4.35
	c0.24,5.03,6.31,9.49,15.35,12.08c9.04,2.58,15.15,2.13,17.39-2.72c0.08-0.18,1.26-4.05,1.25-4.27c0,0,0,0,0,0
	C702.08,73.85,694.16,74.99,684.99,72.37z"/>
<path class="st1" d="M687.11,56.98c-9.4-2.69-17.5-1.42-18.08,2.83c-0.03,0.2-0.03,0.4-0.03,0.61c0.13,4.17,7.04,9.39,16,11.95
	c9.17,2.62,17.09,1.48,18.02-2.51c0.02-0.1,0.05-0.21,0.06-0.32C703.66,65.29,696.51,59.66,687.11,56.98z"/>
<path class="st0" d="M62.52,15.62c-11.83-2.5-21.32-5.78-22.36-7.65c-0.04,0.86,0.06,3.09,0.08,3.27c0.32,4.18,8.72,7.26,20.79,9.98
	c12.07,2.72,20.56,3.46,23.55-0.41c0.1-0.13,1.37-2.64,1.63-3.3C85.11,19.02,74.79,18.22,62.52,15.62z"/>
<path class="st1" d="M63.86,9.26c-12.77-2.7-23.42-3.46-23.79-1.7c-0.03,0.13,0.01,0.27,0.09,0.42c1.03,1.87,10.52,5.15,22.36,7.65
	c12.28,2.59,22.59,3.4,23.7,1.89c0.04-0.06,0.08-0.12,0.09-0.19C86.68,15.57,76.63,11.96,63.86,9.26z"/>
<path class="st0" d="M30.44,80.99c-13.15,2.2-24.27,2.9-26.15,1.73c0.34,0.71,1.43,2.53,1.53,2.68c2.18,3.34,12.1,2.86,25.6,0.76
	c13.5-2.11,22.47-4.56,23.8-8.84c0.04-0.14,0.22-2.69,0.19-3.32C54.96,75.65,44.1,78.7,30.44,80.99z"/>
<path class="st1" d="M28.99,75.23C14.79,77.6,3.61,80.81,4.01,82.4c0.03,0.12,0.13,0.22,0.28,0.31c1.89,1.17,13,0.47,26.15-1.73
	C44.1,78.7,54.96,75.65,55.41,74c0.02-0.07,0.03-0.13,0.01-0.19C55.02,72.22,43.19,72.86,28.99,75.23z"/>
</svg>
