<?xml version="1.0" encoding="utf-8"?>
<!-- Generator: Adobe Illustrator 23.0.6, SVG Export Plug-In . SVG Version: 6.00 Build 0)  -->
<svg version="1.1" id="Layer_1" xmlns="http://www.w3.org/2000/svg" xmlns:xlink="http://www.w3.org/1999/xlink" x="0px" y="0px"
	 width="120px" height="600px" viewBox="0 0 120 600" style="enable-background:new 0 0 120 600;" xml:space="preserve">
<style type="text/css">
	.st0{fill:#F7A509;}
	.st1{fill:#FFFF61;}
	.st2{fill:#FFFF81;}
</style>
<g>
	<path class="st0" d="M3.89,538.79c-11-2.33-19.83-5.38-20.79-7.11c-0.03,0.8,0.06,2.87,0.07,3.04c0.3,3.88,8.11,6.75,19.33,9.28
		c11.22,2.53,19.12,3.21,21.9-0.38c0.1-0.13,1.42-2.75,1.55-3.16C25.26,541.97,15.54,541.25,3.89,538.79z"/>
	<path class="st0" d="M8.88,187.81c0.18-0.22,2.99-4.93,3.03-5.21c0,0,0,0,0-0.01c-2.48,4.92-14.98,4.88-28.44-0.18
		c-13.15-4.95-22.45-12.92-21.57-18.25c0,0,0,0,0,0c-0.2,0.28-1.03,5.22-1.08,5.55c-0.93,6.46,7.28,13.3,20.55,18.29
		C-5.36,193.01,4.18,193.57,8.88,187.81z"/>
	<path class="st1" d="M-16.52,182.42c13.45,5.07,25.96,5.1,28.44,0.18c0.06-0.13,0.13-0.26,0.18-0.39c2-5.31-7.57-13.83-21.37-19.03
		c-13.8-5.2-26.61-5.1-28.61,0.21c-0.09,0.25-0.15,0.51-0.2,0.77C-38.97,169.5-29.67,177.47-16.52,182.42z"/>
	<path class="st0" d="M99.58,322.24c13.27,5,22.75,5.71,27.31,0.34c0.17-0.2,2.88-4.62,2.91-4.88c0,0,0,0,0,0
		c-2.36,4.62-14.78,4.35-28.24-0.72c-13.15-4.95-22.54-12.69-21.76-17.74c0,0,0,0,0,0c-0.19,0.26-0.92,4.93-0.96,5.25
		C78.04,310.6,86.31,317.24,99.58,322.24z"/>
	<path class="st2" d="M101.57,316.97c13.45,5.07,25.87,5.34,28.24,0.72c0.06-0.12,0.12-0.24,0.17-0.37
		c1.88-5-7.78-13.27-21.58-18.47c-13.8-5.2-26.52-5.35-28.4-0.35c-0.09,0.24-0.14,0.48-0.18,0.73
		C79.03,304.28,88.41,312.02,101.57,316.97z"/>
	<path class="st0" d="M154.3,228.03c-0.07-0.3-2.31-6.17-2.53-6.43c0,0,0,0,0,0c2.66,5.8-6.15,14.55-20.13,19.82
		c-13.67,5.15-27.33,5.1-31.49,0.08c0,0,0,0,0,0c0.11,0.37,3.95,5.03,4.21,5.34c5.13,5.99,17.01,5.86,30.8,0.67
		C148.95,242.32,156.15,236.09,154.3,228.03z"/>
	<path class="st2" d="M131.64,241.42c13.98-5.27,22.8-14.02,20.13-19.82c-0.07-0.15-0.14-0.3-0.23-0.45
		c-3.35-5.79-17.69-6.1-32.04-0.7c-14.34,5.4-23.26,14.48-19.91,20.27c0.16,0.27,0.35,0.53,0.55,0.78
		C104.3,246.52,117.97,246.57,131.64,241.42z"/>
	<path class="st0" d="M2.12,426.44c13.56-4.53,21.28-10.08,21.05-17.4c-0.01-0.27-0.99-5.62-1.15-5.85c0,0,0,0,0,0
		c1.38,5.28-8.27,13.1-22.02,17.69c-13.44,4.49-25.93,4.27-28.82-0.33c0,0,0,0,0,0c0.03,0.34,2.7,4.6,2.88,4.89
		C-22.33,430.93-11.44,430.97,2.12,426.44z"/>
	<path class="st2" d="M0,420.88c13.75-4.59,23.41-12.4,22.02-17.69c-0.04-0.14-0.07-0.27-0.12-0.41
		c-2.01-5.28-15.08-5.75-29.19-1.04c-14.11,4.71-23.91,12.81-21.9,18.09c0.09,0.25,0.22,0.48,0.36,0.71
		C-25.93,425.15-13.44,425.37,0,420.88z"/>
	<path class="st2" d="M5.14,532.87c-11.87-2.51-21.77-3.22-22.12-1.59c-0.03,0.12,0.01,0.25,0.08,0.39
		c0.96,1.73,9.78,4.79,20.79,7.11c11.64,2.46,21.37,3.18,22.07,1.67c0.01-0.03,0.05-0.05,0.05-0.09
		C26.36,538.74,17.01,535.38,5.14,532.87z"/>
	<path class="st0" d="M15.15,229.51c-12.2-2.58-21.98-5.96-23.05-7.89c-0.04,0.88,0.07,3.19,0.08,3.37
		c0.33,4.3,8.99,7.48,21.44,10.28c12.44,2.8,21.2,3.56,24.28-0.42c0.1-0.13,1.41-2.73,1.68-3.4
		C38.44,233.01,27.81,232.19,15.15,229.51z"/>
	<path class="st2" d="M16.54,222.95c-13.16-2.78-24.14-3.57-24.53-1.76c-0.03,0.13,0.01,0.28,0.09,0.43
		c1.06,1.92,10.85,5.31,23.05,7.89c12.66,2.67,23.29,3.5,24.43,1.95c0.05-0.06,0.08-0.13,0.1-0.2
		C40.06,229.46,29.7,225.73,16.54,222.95z"/>
	<path class="st0" d="M107.06,438.76c-12.26,2.05-22.62,2.71-24.38,1.61c0.31,0.67,1.33,2.36,1.42,2.5
		c2.03,3.12,11.28,2.67,23.86,0.71c12.58-1.96,20.95-4.25,22.19-8.24c0.04-0.13,0.21-2.5,0.18-3.09
		C129.91,433.78,119.79,436.63,107.06,438.76z"/>
	<path class="st2" d="M105.71,433.39c-13.23,2.21-23.66,5.2-23.29,6.69c0.03,0.11,0.12,0.21,0.26,0.29
		c1.76,1.09,12.12,0.43,24.38-1.61c12.73-2.13,22.85-4.98,23.28-6.51c0.02-0.06,0.02-0.12,0.01-0.18
		C129.97,430.59,118.94,431.18,105.71,433.39z"/>
	<path class="st0" d="M11.86,113.08c-13,5.34-25.57,5.03-28.99-0.53c0,0,0,0,0,0.01c0.07,0.41,3.22,5.55,3.45,5.9
		c4.24,6.62,15.18,6.71,28.3,1.33c13.12-5.39,20.25-12.03,19.2-20.84c-0.04-0.33-1.63-6.76-1.81-7.05c0,0,0,0,0-0.01
		C33.98,98.26,25.16,107.62,11.86,113.08z"/>
	<path class="st2" d="M-17.13,112.55c3.42,5.55,15.99,5.87,28.99,0.53C25.16,107.62,33.98,98.26,32,91.9
		c-0.05-0.17-0.11-0.33-0.17-0.49c-2.61-6.37-15.79-6.98-29.44-1.38c-13.64,5.6-22.58,15.31-19.97,21.67
		C-17.45,112-17.3,112.28-17.13,112.55z"/>
	<path class="st0" d="M109.38,172.96c17.65-1,31.31-13.21,30.51-27.27c-0.03-0.53-0.09-1.04-0.15-1.56
		c-0.85,12.13-12.28,23.05-27.73,25.54c-17.45,2.82-33.41-6.18-35.65-20.08c-0.2-1.25-0.28-2.5-0.25-3.74
		c-0.13,1.13-0.17,2.28-0.1,3.45C76.79,163.36,91.74,173.96,109.38,172.96z"/>
	<path class="st2" d="M112.01,169.68c15.45-2.49,26.88-13.42,27.73-25.54c0.11-1.56,0.05-3.15-0.2-4.74
		c-2.24-13.91-18.21-22.9-35.65-20.08c-15.87,2.56-27.5,14.02-27.78,26.54c-0.03,1.24,0.05,2.49,0.25,3.74
		C78.6,163.5,94.56,172.49,112.01,169.68z"/>
</g>
</svg>
