<?xml version="1.0" encoding="utf-8"?>
<!-- Generator: Adobe Illustrator 23.0.6, SVG Export Plug-In . SVG Version: 6.00 Build 0)  -->
<svg version="1.1" id="Layer_1" xmlns="http://www.w3.org/2000/svg" xmlns:xlink="http://www.w3.org/1999/xlink" x="0px" y="0px"
	 width="300px" height="600px" viewBox="0 0 300 600" style="enable-background:new 0 0 300 600;" xml:space="preserve">
<style type="text/css">
	.st0{fill:#F7A509;}
	.st1{fill:#FFFF81;}
</style>
<g>
	<path class="st0" d="M258.12,437.62c19.45,7.32,33.34,8.38,40.02,0.49c0.25-0.29,4.22-6.78,4.27-7.16c0,0,0,0,0-0.01
		c-3.47,6.77-21.66,6.37-41.38-1.05c-19.28-7.26-33.03-18.6-31.9-26c0,0,0,0,0,0c-0.28,0.38-1.35,7.23-1.41,7.7
		C226.54,420.56,238.67,430.3,258.12,437.62z"/>
	<path class="st1" d="M261.03,429.9c19.72,7.42,37.92,7.83,41.38,1.05c0.09-0.18,0.18-0.35,0.25-0.54
		c2.76-7.33-11.4-19.45-31.63-27.07c-20.23-7.62-38.87-7.85-41.63-0.51c-0.13,0.35-0.21,0.7-0.27,1.07
		C227.99,411.3,241.75,422.64,261.03,429.9z"/>
	<path class="st0" d="M46.56,259.31c0.14-0.34,2.06-7.67,2.02-8.07c0,0,0-0.01,0-0.01c-1.44,7.56-16.46,9.57-34.19,4.41
		c-17.33-5.04-30.98-15.1-31.58-23c0,0,0,0,0,0.01c-0.15,0.44,0.39,7.76,0.43,8.26c0.9,9.55,12.88,18.14,30.36,23.23
		S42.7,268.46,46.56,259.31z"/>
	<path class="st1" d="M14.38,255.64c17.73,5.16,32.75,3.15,34.19-4.41c0.04-0.2,0.07-0.39,0.09-0.6
		c0.75-8.06-13.39-18.87-31.58-24.16c-18.19-5.29-33.54-3.05-34.28,5.01c-0.04,0.38-0.03,0.77,0,1.16
		C-16.59,240.54-2.95,250.6,14.38,255.64z"/>
	<path class="st0" d="M294.22,322.21c-14.68,9.7-30.73,13.3-36.96,8.5c0,0,0,0,0,0.01c0.23,0.41,5.98,4.85,6.38,5.15
		c7.63,5.66,21.54,2.34,36.35-7.44c14.81-9.78,21.6-19.02,17.27-27.99c-0.16-0.33-4.36-6.63-4.69-6.87c0,0,0,0-0.01,0
		C317.25,299.66,309.23,312.29,294.22,322.21z"/>
	<path class="st1" d="M274.37,300.83c-15.4,10.18-23.45,23.21-17.97,29.12c0.26,0.28,0.55,0.53,0.86,0.76
		c6.22,4.79,22.28,1.19,36.96-8.5c15.01-9.92,23.03-22.55,18.35-28.65c-0.12-0.16-0.25-0.32-0.38-0.46
		C306.7,287.19,289.77,290.65,274.37,300.83z"/>
	<path class="st0" d="M54.8,320.96c-16.28-3.44-29.33-7.96-30.75-10.52c-0.05,1.18,0.09,4.25,0.11,4.5c0.44,5.74,12,9.98,28.6,13.72
		c16.6,3.74,28.28,4.75,32.4-0.56c0.14-0.18,1.89-3.64,2.24-4.53C85.87,325.64,71.69,324.53,54.8,320.96z"/>
	<path class="st1" d="M56.65,312.21c-17.56-3.71-32.21-4.76-32.72-2.34c-0.04,0.18,0.01,0.37,0.12,0.57
		c1.42,2.57,14.47,7.08,30.75,10.52c16.89,3.57,31.07,4.67,32.59,2.61c0.06-0.08,0.11-0.17,0.13-0.26
		C88.03,320.89,74.21,315.92,56.65,312.21z"/>
	<path class="st0" d="M305.8,495.96c-16.28-3.44-29.33-7.96-30.75-10.52c-0.05,1.18,0.09,4.25,0.11,4.5
		c0.44,5.74,12,9.98,28.6,13.72c16.6,3.74,28.28,4.75,32.4-0.56c0.14-0.18,1.89-3.64,2.24-4.53
		C336.87,500.64,322.69,499.53,305.8,495.96z"/>
	<path class="st1" d="M307.65,487.21c-17.56-3.71-32.21-4.76-32.72-2.34c-0.04,0.18,0.01,0.37,0.12,0.57
		c1.42,2.57,14.47,7.08,30.75,10.52c16.89,3.57,31.07,4.67,32.59,2.61c0.06-0.08,0.11-0.17,0.13-0.26
		C339.03,495.89,325.21,490.92,307.65,487.21z"/>
	<path class="st0" d="M21.17,409.32c-13.55,2.35-24.96,2.88-26.83,1.35c0.32,0.92,1.37,3.24,1.46,3.42
		c2.1,4.27,12.27,3.99,26.17,1.77c13.89-2.22,23.17-5.02,24.7-10.36c0.05-0.18,0.33-3.37,0.33-4.17
		C46.46,403.38,35.23,406.88,21.17,409.32z"/>
	<path class="st1" d="M19.91,402.04c-14.62,2.53-26.19,6.22-25.84,8.23c0.03,0.15,0.12,0.28,0.27,0.4c1.88,1.54,13.28,1,26.83-1.35
		c14.06-2.44,25.29-5.94,25.82-7.99c0.02-0.08,0.03-0.16,0.02-0.24C46.66,399.08,34.53,399.5,19.91,402.04z"/>
	<path class="st0" d="M268.63,589.28c-18.09,3.02-33.38,3.99-35.97,2.38c0.46,0.98,1.97,3.49,2.1,3.69c3,4.6,16.65,3.94,35.21,1.04
		c18.56-2.9,30.91-6.27,32.74-12.15c0.06-0.2,0.31-3.69,0.27-4.56C302.35,581.94,287.41,586.14,268.63,589.28z"/>
	<path class="st1" d="M266.63,581.37c-19.53,3.26-34.91,7.68-34.36,9.87c0.04,0.16,0.18,0.3,0.38,0.43
		c2.6,1.61,17.89,0.64,35.97-2.38c18.78-3.14,33.72-7.34,34.34-9.6c0.03-0.09,0.04-0.18,0.01-0.26
		C302.44,577.23,286.16,578.1,266.63,581.37z"/>
	<path class="st0" d="M45.75,158.37c-19.43,4.24-36.88,0.7-40.27-7.88c0,0,0,0.01,0,0.01c0,0.58,3.13,8.53,3.35,9.07
		c4.28,10.27,19.51,13.1,39.11,8.83c19.61-4.27,31.18-11.77,31.89-24.31c0.03-0.47-0.6-9.83-0.78-10.27c0,0,0-0.01,0-0.01
		C80.23,143.17,65.62,154.04,45.75,158.37z"/>
	<path class="st1" d="M5.06,149.19c0.1,0.45,0.24,0.88,0.41,1.3c3.39,8.58,20.84,12.12,40.27,7.88
		c19.88-4.33,34.48-15.2,33.29-24.56c-0.03-0.24-0.07-0.49-0.12-0.73c-2.08-9.52-20.29-13.63-40.68-9.18
		C17.84,128.36,2.99,139.68,5.06,149.19z"/>
	<path class="st0" d="M14.51,65.92c21.13-1.19,37.49-15.82,36.54-32.66c-0.04-0.63-0.1-1.25-0.18-1.87
		C49.85,45.92,36.17,59,17.66,61.99c-20.9,3.37-40.01-7.4-42.7-24.05c-0.24-1.5-0.34-3-0.3-4.48c-0.15,1.36-0.2,2.74-0.12,4.13
		C-24.52,54.43-6.62,67.12,14.51,65.92z"/>
	<path class="st1" d="M17.66,61.99C36.17,59,49.85,45.92,50.87,31.39c0.13-1.87,0.06-3.77-0.24-5.67C47.94,9.07,28.82-1.7,7.92,1.67
		c-19.01,3.07-32.94,16.79-33.27,31.78c-0.03,1.49,0.06,2.98,0.3,4.48C-22.36,54.59-3.24,65.36,17.66,61.99z"/>
	<path class="st0" d="M270.63,234.5c22.62-1.28,40.14-16.93,39.12-34.96c-0.04-0.67-0.11-1.34-0.2-2
		c-1.09,15.55-15.74,29.55-35.55,32.75c-22.37,3.61-42.84-7.92-45.71-25.75c-0.26-1.61-0.36-3.21-0.33-4.8
		c-0.16,1.45-0.22,2.93-0.13,4.42C228.85,222.19,248.01,235.77,270.63,234.5z"/>
	<path class="st1" d="M228.29,204.53c2.88,17.83,23.34,29.36,45.71,25.75c19.81-3.2,34.46-17.2,35.55-32.75
		c0.14-2.01,0.07-4.03-0.26-6.07c-2.88-17.83-23.34-29.36-45.71-25.75c-20.35,3.28-35.26,17.97-35.62,34.02
		C227.93,201.32,228.03,202.93,228.29,204.53z"/>
</g>
</svg>
