<?xml version="1.0" encoding="utf-8"?>
<!-- Generator: Adobe Illustrator 23.0.6, SVG Export Plug-In . SVG Version: 6.00 Build 0)  -->
<svg version="1.1" id="Layer_1" xmlns="http://www.w3.org/2000/svg" xmlns:xlink="http://www.w3.org/1999/xlink" x="0px" y="0px"
	 width="300px" height="250px" viewBox="0 0 300 250" style="enable-background:new 0 0 300 250;" xml:space="preserve">
<style type="text/css">
	.st0{fill:#F7A509;}
	.st1{fill:#FFFF61;}
	.st2{fill:#FFFF81;}
</style>
<path class="st0" d="M37.3,39.33c0.18-0.22,2.99-4.93,3.03-5.21c0,0,0,0,0-0.01C37.86,39.04,25.35,39,11.9,33.93
	C-1.25,28.98-10.55,21.01-9.67,15.68c0,0,0,0,0,0c-0.2,0.28-1.03,5.22-1.08,5.55c-0.93,6.46,7.28,13.3,20.55,18.29
	C23.06,44.52,32.6,45.09,37.3,39.33z"/>
<path class="st1" d="M11.9,33.93c13.45,5.07,25.96,5.1,28.44,0.18c0.06-0.13,0.13-0.26,0.18-0.39c2-5.31-7.57-13.83-21.37-19.03
	C5.34,9.5-7.47,9.59-9.47,14.91c-0.09,0.25-0.15,0.51-0.2,0.77C-10.55,21.01-1.25,28.98,11.9,33.93z"/>
<path class="st0" d="M283.35,172.41c11.73,3.33,20.07,3.68,24.01-0.22c0.15-0.15,2.47-3.33,2.49-3.52c0,0,0,0,0,0
	c-2.02,3.32-12.93,3.34-24.83-0.04c-11.63-3.3-19.98-8.64-19.37-12.24c0,0,0,0,0,0c-0.17,0.19-0.74,3.52-0.78,3.75
	C264.25,164.5,271.62,169.08,283.35,172.41z"/>
<path class="st2" d="M285.02,168.63c11.9,3.37,22.81,3.36,24.83,0.04c0.05-0.09,0.1-0.17,0.14-0.26c1.59-3.59-7.02-9.3-19.22-12.76
	c-12.2-3.46-23.38-3.36-24.97,0.23c-0.07,0.17-0.12,0.34-0.15,0.52C265.04,159.99,273.39,165.33,285.02,168.63z"/>
<path class="st0" d="M282.26,120.35c0.14-0.28,2.12-6.24,2.12-6.58c0,0,0,0,0-0.01c-1.61,6.18-13.98,7.36-28.13,2.58
	c-13.84-4.68-24.38-13.37-24.41-19.89c0,0,0,0,0,0c-0.15,0.36-0.13,6.39-0.12,6.8c0.18,7.88,9.45,15.31,23.41,20.03
	C269.07,128.02,278.59,127.76,282.26,120.35z"/>
<path class="st2" d="M256.24,116.35c14.15,4.78,26.52,3.6,28.13-2.58c0.04-0.16,0.08-0.32,0.11-0.49
	c1.08-6.6-9.83-15.93-24.35-20.84c-14.52-4.91-27.17-3.53-28.24,3.07c-0.05,0.31-0.07,0.63-0.06,0.95
	C231.86,102.98,242.4,111.67,256.24,116.35z"/>
<path class="st0" d="M48.57,81.02c-12.2-2.58-21.98-5.96-23.05-7.89c-0.04,0.88,0.07,3.19,0.08,3.37c0.33,4.3,8.99,7.48,21.44,10.28
	c12.44,2.8,21.2,3.56,24.28-0.42c0.1-0.13,1.41-2.73,1.68-3.4C71.86,84.53,61.23,83.7,48.57,81.02z"/>
<path class="st2" d="M49.96,74.47c-13.16-2.78-24.14-3.57-24.53-1.76c-0.03,0.13,0.01,0.28,0.09,0.43
	c1.06,1.92,10.85,5.31,23.05,7.89c12.66,2.67,23.29,3.5,24.43,1.95c0.05-0.06,0.08-0.13,0.1-0.2
	C73.48,80.97,63.12,77.25,49.96,74.47z"/>
<path class="st0" d="M255.82,231.51c-12.18,2.67-22.49,3.62-24.25,2.3c0.33,0.82,1.37,2.88,1.46,3.04
	c2.07,3.79,11.28,3.12,23.77,0.54c12.49-2.57,20.79-5.48,21.96-10.38c0.04-0.16,0.17-3.07,0.13-3.79
	C278.48,225.11,268.45,228.73,255.82,231.51z"/>
<path class="st2" d="M254.38,224.96c-13.14,2.89-23.47,6.69-23.07,8.5c0.03,0.13,0.12,0.25,0.26,0.35
	c1.76,1.32,12.07,0.37,24.25-2.3c12.64-2.77,22.67-6.4,23.07-8.28c0.02-0.08,0.02-0.15,0.01-0.22
	C278.49,221.2,267.52,222.07,254.38,224.96z"/>
<path class="st0" d="M15.48,145.27c-12.26,2.05-22.62,2.71-24.38,1.61c0.31,0.67,1.33,2.36,1.42,2.5
	c2.03,3.12,11.28,2.67,23.86,0.71c12.58-1.96,20.95-4.25,22.19-8.24c0.04-0.13,0.21-2.5,0.18-3.09
	C38.33,140.29,28.21,143.14,15.48,145.27z"/>
<path class="st2" d="M14.13,139.91c-13.23,2.21-23.66,5.2-23.29,6.69c0.03,0.11,0.12,0.21,0.26,0.29
	c1.76,1.09,12.12,0.43,24.38-1.61c12.73-2.13,22.85-4.98,23.28-6.51c0.02-0.06,0.02-0.12,0.01-0.18
	C38.39,137.1,27.36,137.69,14.13,139.91z"/>
<path class="st0" d="M279.28,49.59c-13,5.34-25.57,5.03-28.99-0.53c0,0,0,0,0,0.01c0.07,0.41,3.22,5.55,3.45,5.9
	c4.24,6.62,15.18,6.71,28.3,1.33c13.12-5.39,20.25-12.03,19.2-20.84c-0.04-0.33-1.63-6.76-1.81-7.05c0,0,0,0,0-0.01
	C301.4,34.77,292.58,44.13,279.28,49.59z"/>
<path class="st2" d="M250.29,49.07c3.42,5.55,15.99,5.87,28.99,0.53c13.3-5.46,22.12-14.82,20.14-21.18
	c-0.05-0.17-0.11-0.33-0.17-0.49c-2.61-6.37-15.79-6.98-29.44-1.38c-13.64,5.6-22.58,15.31-19.97,21.67
	C249.97,48.51,250.12,48.79,250.29,49.07z"/>
</svg>
