<?xml version="1.0" encoding="utf-8"?>
<!-- Generator: Adobe Illustrator 23.0.6, SVG Export Plug-In . SVG Version: 6.00 Build 0)  -->
<svg version="1.1" id="Layer_1" xmlns="http://www.w3.org/2000/svg" xmlns:xlink="http://www.w3.org/1999/xlink" x="0px" y="0px"
	 width="468px" height="90px" viewBox="0 0 468 90" style="enable-background:new 0 0 468 90;" xml:space="preserve">
<style type="text/css">
	.st0{fill:#F7A509;}
	.st1{fill:#FFFF81;}
</style>
<path class="st0" d="M28.15,17.54c0.06-0.15,0.89-3.3,0.87-3.47c0,0,0,0,0,0c-0.62,3.25-7.08,4.12-14.71,1.9
	C6.85,13.8,0.98,9.47,0.72,6.07c0,0,0,0,0,0C0.65,6.26,0.89,9.41,0.91,9.62c0.39,4.11,5.54,7.81,13.06,10S26.5,21.48,28.15,17.54z"
	/>
<path class="st1" d="M14.31,15.97c7.63,2.22,14.09,1.36,14.71-1.9c0.02-0.08,0.03-0.17,0.04-0.26c0.32-3.47-5.76-8.12-13.59-10.4
	C7.65,1.14,1.04,2.1,0.72,5.57c-0.02,0.16-0.01,0.33,0,0.5C0.98,9.47,6.85,13.8,14.31,15.97z"/>
<path class="st0" d="M451.48,39.01c-8.05,4.22-16.49,5.23-19.43,2.44c0,0,0,0,0,0c0.1,0.22,2.82,2.81,3.01,2.98
	c3.62,3.31,10.95,2.33,19.07-1.93c8.12-4.26,12.09-8.65,10.34-13.48c-0.07-0.18-1.9-3.64-2.05-3.78c0,0,0,0,0,0
	C464.49,28.62,459.72,34.7,451.48,39.01z"/>
<path class="st1" d="M442.4,26.99c-8.45,4.43-13.26,10.71-10.75,14.02c0.12,0.16,0.25,0.3,0.4,0.44c2.95,2.79,11.39,1.78,19.43-2.44
	c8.23-4.31,13.01-10.39,10.92-13.77c-0.05-0.09-0.11-0.17-0.17-0.26C459.73,21.67,450.85,22.56,442.4,26.99z"/>
<path class="st0" d="M432.39,82.09c-7.79-2.23-13.79-6.77-13.9-10.39c0,0,0,0,0,0c-0.08,0.2,0.02,3.55,0.03,3.78
	c0.21,4.37,5.49,8.25,13.34,10.49c7.85,2.25,13.16,1.85,15.1-2.36c0.07-0.16,1.1-3.52,1.09-3.71c0,0,0,0,0,0
	C447.23,83.38,440.35,84.37,432.39,82.09z"/>
<path class="st1" d="M434.22,68.72c-8.17-2.34-15.21-1.23-15.71,2.46c-0.02,0.17-0.03,0.35-0.02,0.53
	c0.11,3.62,6.11,8.16,13.9,10.39c7.96,2.28,14.85,1.29,15.66-2.18c0.02-0.09,0.04-0.18,0.05-0.27
	C448.61,75.94,442.39,71.05,434.22,68.72z"/>
<path class="st0" d="M34.7,45.07c-7-1.48-12.62-3.42-13.23-4.53c-0.02,0.51,0.04,1.83,0.05,1.94c0.19,2.47,5.16,4.3,12.31,5.9
	c7.14,1.61,12.17,2.05,13.94-0.24c0.06-0.08,0.81-1.57,0.96-1.95C48.07,47.09,41.97,46.61,34.7,45.07z"/>
<path class="st1" d="M35.5,41.31c-7.56-1.6-13.86-2.05-14.08-1.01c-0.02,0.08,0,0.16,0.05,0.25c0.61,1.1,6.23,3.05,13.23,4.53
	c7.27,1.54,13.37,2.01,14.03,1.12c0.03-0.04,0.05-0.07,0.06-0.11C49,45.04,43.05,42.91,35.5,41.31z"/>
<path class="st0" d="M15.72,85.54c-7.78,1.3-14.36,1.72-15.48,1.03c0.2,0.42,0.85,1.5,0.9,1.59c1.29,1.98,7.16,1.7,15.15,0.45
	c7.99-1.25,13.3-2.7,14.09-5.23c0.03-0.08,0.13-1.59,0.12-1.96C30.23,82.38,23.8,84.19,15.72,85.54z"/>
<path class="st1" d="M14.86,82.13c-8.4,1.4-15.02,3.3-14.79,4.25c0.02,0.07,0.08,0.13,0.16,0.19c1.12,0.69,7.7,0.28,15.48-1.03
	c8.08-1.35,14.51-3.16,14.78-4.13c0.01-0.04,0.02-0.08,0.01-0.11C30.26,80.35,23.26,80.73,14.86,82.13z"/>
</svg>
