<svg xmlns="http://www.w3.org/2000/svg" width="69.9" height="35.8" viewBox="0 0 69.9 35.8"><defs><style>.a{fill:none;}.b{fill:#fff;}.c{fill:#ecbc58;}</style></defs><g transform="translate(-0.1)"><path class="a" d="M55.2,20.8c.9,0,1.5-.5,1.5-1.9V8.6c0-1.4-.6-1.9-1.5-1.9s-1.5.5-1.5,1.9V19C53.7,20.3,54.2,20.8,55.2,20.8Z"/><path class="a" d="M41.2,31.8l-1.3-3-1.2,3Z"/><path class="a" d="M12.6,7l-1.4,9h2.9L12.7,7Z"/><path class="a" d="M46.6,9V6.1c0-1.4-.5-1.8-1.5-1.8H43.7v6.4h1.4C46.1,10.7,46.6,10.3,46.6,9Z"/><path class="b" d="M3.7,27.8,2.3,29.4H.2l1.1,1.8-.6,2,2-.5L4.5,34l.1-2.1,1.7-1.3-1.9-.8Z"/><path class="b" d="M67.3,27.8l-1.4,1.6H63.8l1.1,1.8-.7,2,2.1-.5L68.1,34l.1-2.1,1.7-1.3-2-.8Z"/><path class="b" d="M12.6,32,9.8,25.4H8l4.6,10.4L17,25.4H15.3Z"/><path class="b" d="M54.5,35.4h6V34H56V30.9h3.7V29.4H56V26.8h4.5V25.4h-6Z"/><path class="b" d="M35.5,35.4h1.7l.9-2.2h3.6l.9,2.2h1.7L39.9,24.9Zm5.7-3.6H38.7l1.2-3.1Z"/><path class="b" d="M30.6,25.4H29v10h5.8V34H30.6Z"/><path class="b" d="M23.6,25.4H22v10h5.8V34H23.6Z"/><rect class="b" width="1.6" height="10.1" transform="translate(18.4 25.4)"/><path class="b" d="M49.4,31.6h1.8v1.9a5.825,5.825,0,0,1-1.6.4,3.494,3.494,0,1,1,2.3-6.2V25.8a6.408,6.408,0,0,0-2.4-.4,4.947,4.947,0,0,0-4.8,4.9,4.873,4.873,0,0,0,2.1,4.3,5.151,5.151,0,0,0,4.9.5l1.1-.7V30.3H49.3v1.3Z"/><path class="c" d="M60.8,6V8.7h3.1V25.3h3V8.7H70V6Z"/><path class="c" d="M55.2,23.6c2.9,0,4.5-1.8,4.5-4.8V8.8c0-3.1-1.6-4.8-4.5-4.8s-4.5,1.8-4.5,4.8v10C50.7,21.8,52.3,23.6,55.2,23.6Zm-1.5-15c0-1.4.6-1.9,1.5-1.9,1,0,1.5.5,1.5,1.9V19c0,1.4-.6,1.9-1.5,1.9-1,0-1.5-.5-1.5-1.9Z"/><path class="c" d="M43.7,13.4h1.4c3,0,4.4-1.6,4.4-4.7V6.3c0-3-1.5-4.7-4.4-4.7H40.7V21.3h3Zm0-9h1.4c.9,0,1.5.4,1.5,1.8V9c0,1.3-.5,1.8-1.5,1.8H43.7Z"/><path class="c" d="M31.5,14.7l1.8-3.3,3.3,9.8h3L35.1,8.6,39.6,0h-3L31.5,9.4V0H28.7V21.4h2.8Z"/><path class="c" d="M23.1,21.9c2.9,0,4.4-1.7,4.4-4.8V14.6H24.7v2.7c0,1.4-.6,1.8-1.5,1.8-1,0-1.5-.5-1.5-1.8V7.2c0-1.3.6-1.9,1.5-1.9,1,0,1.5.5,1.5,1.9v2h2.8V7.3c0-3-1.5-4.8-4.4-4.8s-4.4,1.7-4.4,4.8v9.8C18.7,20.2,20.2,21.9,23.1,21.9Z"/><path class="c" d="M10.6,3.7,7.3,23.5H10l.8-5.2h3.6l.7,5.2h2.5L14.5,3.7ZM11.2,16l1.4-9h.1l1.4,9Z"/><path class="c" d="M3.5,20.7c0,1.5-.8,1.8-1.7,1.8-.3,0-1.4-.1-1.7-.1v2.1a5.222,5.222,0,0,0,2.1.4c2.2,0,4.3-1,4.3-4.8V5.4h-3Z"/></g></svg>